<?xml version="1.0" encoding="utf-8"?>
<!-- Generator: Adobe Illustrator 18.0.0, SVG Export Plug-In . SVG Version: 6.00 Build 0)  -->
<!DOCTYPE svg PUBLIC "-//W3C//DTD SVG 1.1//EN" "http://www.w3.org/Graphics/SVG/1.1/DTD/svg11.dtd">
<svg version="1.1" id="Layer_1" xmlns="http://www.w3.org/2000/svg" xmlns:xlink="http://www.w3.org/1999/xlink" x="0px" y="0px"
	 width="91px" height="68.2px" viewBox="0 0 91 68.2" enable-background="new 0 0 91 68.2" xml:space="preserve">
<g>
	<path fill="#E9E9E9" d="M20.7,18.2c-2.9,3.3-4.6,6.7-5.2,10.2c-0.3,1.8-0.5,3.4-0.5,4.7c0,1.5,0.2,2.7,0.5,3.7
		c3.1-3.2,6.9-4.8,11.6-4.8s8.5,1.4,11.4,4.1c2.9,2.7,4.4,6.5,4.4,11.3c0,4.6-1.5,8.3-4.6,11.1c-3.1,2.9-7,4.3-11.8,4.3
		c-6.5,0-11.3-2.3-14.3-7c-1.4-2-2.4-4.5-3.2-7.5c-0.8-3-1.2-6-1.2-9.1c0-6.8,1.8-13.1,5.3-18.7S22,10.4,28.9,7.2l1.9,3.6
		C27,12.4,23.6,14.9,20.7,18.2z M61.9,18.2c-2.9,3.3-4.6,6.7-5.2,10.2c-0.3,1.8-0.5,3.4-0.5,4.7c0,1.5,0.2,2.7,0.5,3.7
		c3.1-3.2,6.9-4.8,11.6-4.8c4.7,0,8.5,1.4,11.4,4.1c2.9,2.7,4.4,6.5,4.4,11.3c0,4.6-1.5,8.3-4.6,11.1c-3.1,2.9-7,4.3-11.8,4.3
		c-6.5,0-11.3-2.3-14.3-7c-1.4-2-2.4-4.5-3.2-7.5c-0.8-3-1.2-6-1.2-9.1c0-6.8,1.8-13.1,5.3-18.7s8.8-10.1,15.7-13.3l1.9,3.6
		C68.2,12.4,64.8,14.9,61.9,18.2z"/>
</g>
</svg>
